<?xml version="1.0" encoding="utf-8"?>
<!-- Generator: Adobe Illustrator 25.0.0, SVG Export Plug-In . SVG Version: 6.00 Build 0)  -->
<svg version="1.1" id="Layer_1" xmlns="http://www.w3.org/2000/svg" xmlns:xlink="http://www.w3.org/1999/xlink" x="0px" y="0px"
	 viewBox="0 0 72 48" style="enable-background:new 0 0 72 48;" xml:space="preserve">
<style type="text/css">
	.st0{fill:#F97447;}
	.st1{fill:#FFFFFF;}
</style>
<polygon class="st0" points="24.56,46.84 13.35,37.4 3.9,37.4 3.9,3.16 52.9,3.16 52.9,39.17 28.99,39.17 28.99,17.33 12.76,17.33 
	23.97,20.87 "/>
<g>
	<g>
		<path class="st1" d="M66,8.19c0,0.08,0,0.15,0,0.23c-0.14,0.19-0.3,0.37-0.42,0.57c-0.12,0.19-0.23,0.38-0.1,0.63
			c0.5,1,0.56,2.05,0.19,3.09c-0.31,0.87-0.68,1.72-1.07,2.56c-0.67,1.43-0.93,2.94-0.84,4.51c0.05,0.85,0.11,1.7,0.12,2.55
			c0.02,1.77-0.26,3.48-1.18,5.03c-0.13,0.22-0.29,0.43-0.4,0.66c-0.04,0.09-0.03,0.27,0.03,0.35c0.6,0.71,0.63,1.46,0.24,2.27
			c-0.22,0.46-0.44,0.91-0.65,1.37c-0.21,0.46-0.27,0.93-0.12,1.42c0.18,0.57,0.45,1.08,0.93,1.47c0.38,0.31,0.38,0.58,0.06,0.95
			c-0.09,0.1-0.19,0.19-0.3,0.26c-0.78,0.5-1.61,0.48-2.39,0.06c-0.55-0.29-1.03-0.72-1.53-1.1c-0.53-0.41-1.09-0.58-1.76-0.35
			c-0.64,0.22-1.32,0.24-1.98,0.09c-0.8-0.18-1.59-0.4-2.38-0.62c-0.96-0.26-1.91-0.44-2.91-0.19c-0.35,0.09-0.59-0.14-0.81-0.37
			c-0.9-0.91-1.76-1.85-2.71-2.71c-1.47-1.33-2.87-2.71-4.07-4.3c-1.18-1.56-2.66-2.81-4.41-3.72c-0.29-0.15-0.7-0.23-0.84-0.47
			c-0.15-0.25-0.05-0.65-0.03-0.98c0.01-0.13,0.08-0.27,0.17-0.36c0.25-0.24,0.51-0.27,0.85,0.01c0.57,0.47,1.16,0.5,1.81,0.24
			c0.02-0.01,0.04-0.01,0.06-0.01c1.24-0.39,2.23-1.08,2.63-2.37c0.18-0.6,0.21-1.25,0.26-1.89c0.05-0.63,0.3-1.22,1.18-1.03
			c1.14,0.25,1.99-0.21,2.62-1.14c0.08-0.12,0.17-0.23,0.27-0.33c0.34-0.37,0.66-0.37,1-0.02c0.08,0.08,0.15,0.17,0.23,0.25
			c0.5,0.49,0.98,0.59,1.54,0.19c0.76-0.54,1.55-1.07,2.19-1.74c0.72-0.76,1.29-1.67,1.91-2.53c0.25-0.34,0.46-0.7,0.73-1.02
			c0.49-0.58,1.09-0.62,1.68-0.14c0.12,0.1,0.24,0.2,0.35,0.3c0.41,0.37,0.88,0.46,1.41,0.3c0.69-0.21,1.38-0.44,2.09-0.6
			c1.57-0.37,3.14-0.71,4.5-1.67C64.77,7.44,65.59,7.65,66,8.19z"/>
	</g>
</g>
</svg>
